<svg width="128" height="128" viewBox="0 0 128 128" fill="none" xmlns="http://www.w3.org/2000/svg">
  <defs>
    <linearGradient id="grad-red" x1="18" y1="96" x2="56" y2="18" gradientUnits="userSpaceOnUse">
      <stop stop-color="#E52D27"/>
      <stop offset="1" stop-color="#F7941D"/>
    </linearGradient>
    <linearGradient id="grad-blue" x1="60" y1="18" x2="110" y2="120" gradientUnits="userSpaceOnUse">
      <stop stop-color="#4AA5F8"/>
      <stop offset="1" stop-color="#0057A4"/>
    </linearGradient>
  </defs>
  <path d="M52 16C30 44 28 62 32 77C36.5 94.5 24 110 14 116C32 122 54 118 66 94C76 74 72 40 52 16Z" fill="url(#grad-red)"/>
  <path d="M74 14C96 40 104 60 102 82C100 106 84 120 58 120C94 120 118 92 118 64C118 40 102 20 82 14C80 13.5 76 14 74 14Z" fill="url(#grad-blue)"/>
  <path d="M64 18C84 48 82 78 70 102C62 118 50 124 36 124C66 122 84 94 84 64C84 46 76 30 64 18Z" fill="white" fill-opacity="0.92"/>
</svg>
